<?xml version="1.0" encoding="utf-8"?>
<!-- Generator: Adobe Illustrator 22.0.0, SVG Export Plug-In . SVG Version: 6.00 Build 0)  -->
<svg version="1.1" id="Layer_1" xmlns="http://www.w3.org/2000/svg" xmlns:xlink="http://www.w3.org/1999/xlink" x="0px" y="0px"
	 viewBox="0 0 500 500" style="enable-background:new 0 0 500 500;" xml:space="preserve">
<style type="text/css">
	.st0{fill:#AAB1BA;}
	.st1{fill:#FDDF7F;}
	.st2{fill:#ECF4F7;}
	.st3{fill:#83E1E5;}
	.st4{fill:#1C1D21;}
	.st5{fill:none;}
</style>
<g>
	<path class="st0" d="M185.831,241.465h-31.605c-22.625,0-40.967,18.341-40.967,40.967V495h101.924V258.184
		C204.433,254.258,194.531,248.57,185.831,241.465z"/>
</g>
<g>
	<path class="st0" d="M345.774,241.465h-31.604c-8.701,7.105-18.603,12.793-29.352,16.718V495h101.924V282.432
		C386.741,259.807,368.399,241.465,345.774,241.465z"/>
</g>
<g>
	<path class="st1" d="M250,61.256c-56.074,0-101.531,45.457-101.531,101.53c0,43.842,27.789,81.193,66.713,95.402v30.603
		c10.86,3.966,22.584,6.133,34.817,6.133s23.958-2.167,34.817-6.133v-30.603c38.925-14.209,66.713-51.56,66.713-95.402
		C351.531,106.713,306.074,61.256,250,61.256z"/>
</g>
<g>
	<path class="st2" d="M294.907,166.9l-14.154,7.441c-1.936,1.018-4.198-0.626-3.829-2.782l2.703-15.761
		c0.147-0.856-0.137-1.729-0.759-2.336l-11.451-11.162c-1.566-1.527-0.702-4.186,1.462-4.501l15.825-2.299
		c0.859-0.125,1.602-0.665,1.987-1.443l7.077-14.34c0.968-1.961,3.765-1.961,4.732,0l7.077,14.34
		c0.384,0.779,1.127,1.319,1.987,1.443l15.825,2.299c2.164,0.314,3.029,2.974,1.462,4.501l-11.451,11.162
		c-0.622,0.606-0.906,1.48-0.759,2.336l2.703,15.761c0.37,2.156-1.893,3.799-3.829,2.782l-14.154-7.441
		C296.594,166.496,295.675,166.496,294.907,166.9z"/>
</g>
<g>
	<path class="st3" d="M250,294.925c-12.233,0-23.958-2.167-34.817-6.133V495h69.634V288.792
		C273.958,292.757,262.233,294.925,250,294.925z"/>
</g>
<g>
	<path class="st2" d="M205.093,166.9l14.154,7.441c1.936,1.018,4.198-0.626,3.829-2.782l-2.703-15.761
		c-0.147-0.856,0.137-1.729,0.759-2.336l11.451-11.162c1.566-1.527,0.702-4.186-1.462-4.501l-15.825-2.299
		c-0.859-0.125-1.602-0.665-1.987-1.443l-7.077-14.34c-0.968-1.961-3.765-1.961-4.732,0l-7.077,14.34
		c-0.384,0.779-1.127,1.319-1.987,1.443L176.61,137.8c-2.164,0.314-3.029,2.974-1.462,4.501l11.451,11.162
		c0.622,0.606,0.906,1.48,0.759,2.336l-2.703,15.761c-0.37,2.156,1.893,3.799,3.829,2.782l14.154-7.441
		C203.406,166.496,204.325,166.496,205.093,166.9z"/>
</g>
<path class="st4" d="M157.933,16.534c0-2.761,2.239-5,5-5h6.535V5c0-2.761,2.239-5,5-5s5,2.239,5,5v6.534h6.535c2.761,0,5,2.239,5,5
	s-2.239,5-5,5h-6.535v6.535c0,2.761-2.239,5-5,5s-5-2.239-5-5v-6.535h-6.535C160.172,21.534,157.933,19.296,157.933,16.534z
	 M337.262,58.142h6.534v6.534c0,2.761,2.238,5,5,5s5-2.239,5-5v-6.534h6.534c2.762,0,5-2.239,5-5s-2.238-5-5-5h-6.534v-6.534
	c0-2.761-2.238-5-5-5s-5,2.239-5,5v6.534h-6.534c-2.762,0-5,2.239-5,5S334.5,58.142,337.262,58.142z M157.436,120.718
	c2.453,1.266,5.469,0.305,6.737-2.149C180.833,86.301,213.72,66.256,250,66.256s69.168,20.045,85.828,52.313
	c0.888,1.72,2.636,2.707,4.446,2.707c0.772,0,1.557-0.179,2.29-0.558c2.453-1.267,3.416-4.283,2.148-6.737
	C326.33,78.375,290.038,56.256,250,56.256c-40.038,0-76.329,22.119-94.713,57.725C154.021,116.435,154.982,119.451,157.436,120.718z
	 M283.954,202.692c-7.548,11.49-20.24,18.349-33.954,18.349c-13.713,0-26.407-6.859-33.954-18.349
	c-1.516-2.308-4.616-2.951-6.924-1.434c-2.308,1.516-2.95,4.616-1.434,6.924c9.402,14.313,25.22,22.859,42.312,22.859
	c17.092,0,32.91-8.545,42.312-22.859c1.517-2.308,0.874-5.408-1.434-6.924C288.567,199.74,285.47,200.385,283.954,202.692z
	 M139.305,121.894c1.245-2.465,4.251-3.455,6.717-2.21l27.549,13.907c0.719-0.358,1.494-0.619,2.321-0.739l14.596-2.121
	l6.527-13.227c1.297-2.627,3.922-4.258,6.85-4.258c0,0,0,0,0.001,0c2.929,0,5.553,1.632,6.849,4.258l6.527,13.226l14.597,2.121
	c1.032,0.15,1.991,0.507,2.845,1.02c9.988-3.115,20.643-3.114,30.63,0c0.854-0.513,1.814-0.87,2.846-1.02l14.596-2.121l6.528-13.227
	c1.296-2.626,3.921-4.258,6.85-4.258s5.554,1.632,6.85,4.258l6.528,13.226l14.596,2.121c0.827,0.12,1.603,0.381,2.321,0.739
	l27.55-13.907c2.464-1.244,5.472-0.255,6.717,2.21c1.244,2.465,0.255,5.472-2.211,6.717l-28.253,14.262
	c-0.38,1.112-1.006,2.147-1.888,3.007l-10.563,10.296l2.493,14.538c0.495,2.888-0.67,5.75-3.04,7.472
	c-2.371,1.722-5.452,1.943-8.044,0.581l-13.056-6.864l-13.055,6.864c-1.128,0.593-2.349,0.886-3.563,0.886
	c-1.577,0-3.144-0.494-4.482-1.468c-2.37-1.722-3.534-4.585-3.038-7.472l2.493-14.537l-10.563-10.295
	c-0.748-0.729-1.314-1.582-1.704-2.501c-7.975-2.46-16.471-2.46-24.446,0c-0.39,0.918-0.956,1.772-1.703,2.5l-10.563,10.296
	l2.494,14.538c0.495,2.887-0.669,5.75-3.039,7.471c-1.338,0.973-2.906,1.467-4.483,1.467c-1.214,0-2.434-0.293-3.561-0.885
	l-13.056-6.864l-13.055,6.864c-2.592,1.364-5.676,1.14-8.045-0.582c-2.37-1.722-3.533-4.585-3.038-7.471l2.493-14.537
	l-10.563-10.295c-0.883-0.861-1.509-1.896-1.89-3.008l-28.253-14.262C139.05,127.367,138.06,124.359,139.305,121.894z
	 M274.333,142.06l8.025,7.822c1.8,1.754,2.621,4.281,2.197,6.76l-1.895,11.047l9.918-5.215c0.001,0,0.002-0.001,0.003-0.001
	c1.112-0.584,2.333-0.876,3.553-0.876c1.221,0,2.441,0.292,3.555,0.877l9.92,5.215l-1.895-11.046
	c-0.427-2.476,0.395-5.005,2.197-6.762l8.024-7.822l-11.091-1.612c-2.49-0.361-4.641-1.925-5.753-4.181l-4.958-10.047l-4.96,10.05
	c-1.114,2.256-3.265,3.817-5.752,4.179L274.333,142.06z M182.064,142.06l8.025,7.822c1.8,1.756,2.621,4.282,2.197,6.76
	l-1.895,11.047l9.919-5.215c2.226-1.171,4.884-1.17,7.109,0l9.919,5.215l-1.895-11.045c-0.425-2.478,0.396-5.006,2.197-6.762
	l8.025-7.822l-11.091-1.612c-2.487-0.361-4.637-1.922-5.75-4.177l-4.96-10.051l-4.959,10.05c-1.113,2.255-3.264,3.818-5.753,4.179
	L182.064,142.06z M424.869,495c0,2.761-2.238,5-5,5H360.33c-2.762,0-5-2.239-5-5s2.238-5,5-5h21.411V282.432
	c0-19.832-16.135-35.967-35.968-35.967h-23.222l19.117,35.665c0.72,1.343,0.788,2.941,0.185,4.341
	c-0.604,1.399-1.812,2.448-3.283,2.847l-22.653,6.145l14.979,21.11c0.959,1.352,1.186,3.091,0.605,4.644L289.817,432.78V495
	c0,2.761-2.238,5-5,5s-5-2.239-5-5v-63.124V295.663c-9.653,2.814-19.649,4.261-29.817,4.261c-10.169,0-20.164-1.448-29.817-4.261
	v136.213V495c0,2.761-2.239,5-5,5s-5-2.239-5-5v-62.22l-41.685-111.563c-0.58-1.552-0.354-3.292,0.606-4.644l14.979-21.11
	l-22.654-6.145c-1.471-0.399-2.679-1.447-3.283-2.847c-0.603-1.4-0.535-2.998,0.185-4.341l19.117-35.665h-23.223
	c-19.832,0-35.967,16.135-35.967,35.967V490h21.411c2.761,0,5,2.239,5,5s-2.239,5-5,5H80.131c-2.761,0-5-2.239-5-5s2.239-5,5-5
	h28.128V282.432c0-25.346,20.621-45.967,45.967-45.967h18.904c-18.361-19.148-29.661-45.118-29.661-73.679
	c0-6.53,0.601-13.09,1.787-19.498c0.503-2.716,3.116-4.508,5.826-4.007c2.715,0.502,4.509,3.111,4.007,5.826
	c-1.075,5.81-1.62,11.758-1.62,17.679c0,40.712,25.334,75.617,61.064,89.781c0.122,0.048,0.245,0.095,0.367,0.143
	c1.136,0.445,2.284,0.866,3.44,1.268c0.442,0.154,0.885,0.305,1.329,0.452c0.79,0.262,1.584,0.513,2.382,0.755
	c0.662,0.2,1.325,0.396,1.99,0.582c0.536,0.15,1.074,0.297,1.614,0.438c0.923,0.24,1.849,0.468,2.779,0.681
	c0.469,0.107,0.94,0.207,1.411,0.308c0.931,0.198,1.864,0.387,2.801,0.557c0.413,0.075,0.827,0.144,1.242,0.214
	c0.925,0.156,1.853,0.299,2.784,0.428c0.308,0.043,0.615,0.09,0.923,0.13c1.14,0.146,2.283,0.268,3.43,0.374
	c0.301,0.028,0.601,0.055,0.903,0.08c1.182,0.098,2.368,0.177,3.557,0.231c0.229,0.011,0.458,0.017,0.688,0.026
	c1.273,0.05,2.547,0.083,3.826,0.083c1.279,0,2.554-0.033,3.827-0.083c0.229-0.009,0.458-0.016,0.687-0.026
	c1.189-0.055,2.375-0.134,3.558-0.232c0.301-0.025,0.6-0.052,0.9-0.08c1.148-0.106,2.293-0.228,3.434-0.374
	c0.306-0.039,0.609-0.086,0.914-0.128c0.934-0.129,1.865-0.273,2.793-0.429c0.412-0.07,0.825-0.138,1.235-0.213
	c0.939-0.171,1.874-0.36,2.806-0.558c0.47-0.1,0.941-0.2,1.409-0.307c0.93-0.212,1.856-0.441,2.78-0.681
	c0.541-0.141,1.079-0.288,1.616-0.438c0.66-0.184,1.318-0.378,1.974-0.577c0.807-0.244,1.609-0.498,2.406-0.763
	c0.437-0.145,0.872-0.294,1.307-0.445c1.175-0.409,2.342-0.837,3.496-1.289c0.102-0.04,0.204-0.079,0.306-0.119
	c35.74-14.16,61.082-49.07,61.082-89.788c0-5.919-0.545-11.867-1.621-17.679c-0.502-2.715,1.292-5.324,4.007-5.826
	c2.715-0.503,5.323,1.292,5.827,4.007c1.186,6.41,1.787,12.97,1.787,19.498c0,28.561-11.3,54.53-29.661,73.679h18.904
	c25.347,0,45.968,20.621,45.968,45.967V490h28.128C422.631,490,424.869,492.239,424.869,495z M210.183,404.209V261.624
	c-1.149-0.463-2.286-0.951-3.417-1.453c-0.114-0.051-0.227-0.105-0.341-0.156c-0.972-0.436-1.938-0.886-2.896-1.351
	c-0.252-0.122-0.502-0.249-0.754-0.373c-0.82-0.406-1.635-0.822-2.444-1.249c-0.296-0.156-0.591-0.314-0.886-0.473
	c-0.768-0.415-1.531-0.84-2.289-1.274c-0.298-0.171-0.597-0.34-0.894-0.514c-0.778-0.456-1.549-0.924-2.316-1.4
	c-0.255-0.158-0.513-0.312-0.767-0.473c-0.967-0.612-1.927-1.237-2.875-1.881c-0.04-0.027-0.082-0.053-0.122-0.08
	c-0.926-0.63-1.844-1.275-2.752-1.935l-17.314,32.302l23.5,6.375c1.577,0.428,2.846,1.599,3.397,3.138
	c0.552,1.538,0.317,3.249-0.629,4.582l-17.592,24.792L210.183,404.209z M279.817,285.213v-20.131
	c-1.655,0.482-3.323,0.908-4.997,1.308c-0.434,0.104-0.868,0.207-1.304,0.306c-0.583,0.132-1.165,0.26-1.75,0.382
	c-0.577,0.12-1.157,0.232-1.738,0.342c-0.749,0.143-1.499,0.278-2.251,0.405c-0.679,0.115-1.359,0.226-2.042,0.327
	c-0.468,0.069-0.936,0.134-1.405,0.197c-0.711,0.096-1.425,0.184-2.141,0.266c-0.375,0.043-0.75,0.09-1.126,0.129
	c-1.054,0.109-2.114,0.202-3.177,0.28c-0.321,0.023-0.643,0.041-0.965,0.061c-0.84,0.054-1.682,0.099-2.526,0.133
	c-0.336,0.014-0.672,0.028-1.009,0.038c-1.125,0.035-2.253,0.059-3.386,0.059s-2.261-0.024-3.386-0.059
	c-0.337-0.01-0.673-0.025-1.01-0.039c-0.844-0.034-1.686-0.079-2.525-0.133c-0.323-0.021-0.645-0.038-0.967-0.062
	c-1.062-0.078-2.119-0.171-3.172-0.28c-0.381-0.039-0.761-0.087-1.141-0.131c-0.709-0.081-1.416-0.168-2.12-0.263
	c-0.475-0.064-0.949-0.129-1.422-0.2c-0.671-0.1-1.339-0.209-2.006-0.321c-0.774-0.13-1.545-0.27-2.316-0.417
	c-0.565-0.108-1.13-0.216-1.692-0.333c-0.592-0.123-1.182-0.253-1.771-0.387c-0.425-0.096-0.849-0.197-1.273-0.298
	c-1.681-0.401-3.355-0.829-5.016-1.313v20.131c9.602,3.119,19.613,4.711,29.817,4.711
	C260.203,289.925,270.215,288.333,279.817,285.213z M329.885,281.313l-17.315-32.303c-0.906,0.659-1.821,1.301-2.745,1.93
	c-0.064,0.043-0.129,0.084-0.193,0.127c-0.926,0.627-1.862,1.239-2.806,1.836c-0.262,0.165-0.527,0.324-0.791,0.487
	c-0.759,0.471-1.522,0.934-2.292,1.385c-0.302,0.177-0.605,0.349-0.909,0.522c-0.755,0.432-1.514,0.856-2.28,1.269
	c-0.295,0.159-0.59,0.317-0.886,0.474c-0.811,0.429-1.629,0.845-2.451,1.252c-0.247,0.122-0.494,0.247-0.742,0.368
	c-0.969,0.471-1.946,0.926-2.93,1.367c-0.102,0.046-0.202,0.094-0.304,0.139c-1.133,0.503-2.272,0.993-3.424,1.457v142.585
	l31.39-84.01l-17.593-24.792c-0.945-1.333-1.18-3.043-0.628-4.582c0.552-1.538,1.82-2.71,3.397-3.138L329.885,281.313z M443.363,490
	h-6.743c-2.762,0-5,2.239-5,5s2.238,5,5,5h6.743c2.762,0,5-2.239,5-5S446.125,490,443.363,490z M63.38,490h-6.743
	c-2.761,0-5,2.239-5,5s2.239,5,5,5h6.743c2.761,0,5-2.239,5-5S66.141,490,63.38,490z"/>
</svg>
